<?xml version="1.0" standalone="no"?>
<!DOCTYPE svg PUBLIC "-//W3C//DTD SVG 20010904//EN"
 "http://www.w3.org/TR/2001/REC-SVG-20010904/DTD/svg10.dtd">
<svg version="1.0" xmlns="http://www.w3.org/2000/svg"
 width="26.000000pt" height="23.000000pt" viewBox="0 0 26.000000 23.000000"
 preserveAspectRatio="xMidYMid meet">

<g transform="translate(0.000000,23.000000) scale(0.100000,-0.100000)"
fill="#000000" stroke="none">
<path d="M30 210 c-13 -13 -20 -33 -20 -57 0 -30 8 -44 53 -90 30 -29 59 -53
66 -53 6 0 36 24 66 53 47 45 55 59 55 90 0 63 -53 95 -104 62 -21 -14 -24
-14 -36 0 -17 21 -56 19 -80 -5z m82 -17 c17 -15 19 -15 36 0 42 38 100 -1 86
-57 -6 -25 -87 -106 -105 -106 -21 0 -109 97 -109 120 0 51 55 77 92 43z"/>
</g>
</svg>
